<?xml version="1.0" encoding="UTF-8" standalone="no"?>
<!DOCTYPE svg PUBLIC "-//W3C//DTD SVG 1.1//EN" "http://www.w3.org/Graphics/SVG/1.1/DTD/svg11.dtd">
<svg xmlns="http://www.w3.org/2000/svg" version="1.1" viewBox="0 0 150 150">
<g stroke-width="2.00" fill="none" stroke-linecap="butt">
<path stroke="#7e7282" vector-effect="non-scaling-stroke" d="
  M 146.22 75.00
  A 71.22 71.22 0.0 0 0 75.00 3.78
  A 71.22 71.22 0.0 0 0 3.78 75.00
  A 71.22 71.22 0.0 0 0 75.00 146.22
  A 71.22 71.22 0.0 0 0 146.22 75.00"
/>
<path stroke="#7e7282" vector-effect="non-scaling-stroke" d="
  M 113.31 75.32
  C 113.96 75.32 123.78 74.87 123.19 75.72
  A 0.98 0.53 0.7 0 1 122.62 76.02
  Q 113.24 77.67 113.73 87.50
  C 114.23 97.44 127.96 99.19 132.51 90.93
  C 135.72 85.10 132.05 77.85 125.64 76.24
  A 1.40 0.71 67.2 0 1 124.95 75.66
  L 124.30 74.71
  A 1.14 0.68 -9.4 0 0 123.44 74.37
  L 113.79 74.50
  A 1.21 1.12 89.2 0 1 112.66 73.31
  L 112.48 62.26
  A 1.65 1.16 70.2 0 1 112.73 61.35
  C 118.04 53.76 115.89 48.20 112.48 39.91
  A 0.77 0.74 78.0 0 0 111.79 39.44
  L 35.05 39.61
  A 0.74 0.71 -79.2 0 0 34.38 40.09
  C 31.48 48.12 29.33 53.54 34.36 61.38
  A 1.74 1.72 29.5 0 1 34.62 62.29
  L 34.57 109.84
  A 0.58 0.58 4.7 0 0 35.06 110.41
  C 39.72 111.07 45.34 110.52 48.73 110.52
  Q 80.26 110.48 112.07 110.51
  A 0.76 0.75 -90.0 0 0 112.82 109.75
  L 112.80 75.81
  A 0.50 0.49 0.6 0 1 113.31 75.32"
/>
<path stroke="#7e7282" vector-effect="non-scaling-stroke" d="
  M 35.37 40.99
  L 32.89 49.24
  A 0.41 0.38 7.9 0 0 33.29 49.73
  L 113.97 49.73
  A 0.40 0.38 -8.1 0 0 114.36 49.24
  L 111.87 41.23
  A 0.74 0.67 -8.0 0 0 111.18 40.76
  L 35.70 40.76
  A 0.35 0.31 6.4 0 0 35.37 40.99"
/>
<path stroke="#776b80" vector-effect="non-scaling-stroke" d="
  M 32.42 51.58
  C 33.32 69.92 57.50 69.95 58.92 51.54
  A 0.46 0.45 -88.3 0 0 58.46 51.04
  L 32.91 51.08
  A 0.50 0.48 -1.7 0 0 32.42 51.58"
/>
<path stroke="#776b80" vector-effect="non-scaling-stroke" d="
  M 60.31 51.53
  C 61.29 69.87 85.74 70.05 86.92 51.53
  A 0.47 0.47 -88.3 0 0 86.45 51.03
  L 60.79 51.02
  A 0.49 0.48 88.9 0 0 60.31 51.53"
/>
<path stroke="#776b80" vector-effect="non-scaling-stroke" d="
  M 88.31 51.53
  C 89.17 70.04 114.36 69.80 114.71 51.54
  A 0.51 0.49 -89.4 0 0 114.22 51.02
  L 88.80 51.01
  A 0.50 0.49 88.9 0 0 88.31 51.53"
/>
<path stroke="#7e7282" vector-effect="non-scaling-stroke" d="
  M 110.87 63.28
  C 101.81 70.05 91.15 66.21 87.86 55.91
  Q 87.60 55.09 87.34 55.91
  C 82.82 70.44 65.20 70.07 59.72 56.15
  Q 59.54 55.69 59.37 56.16
  C 55.60 66.58 45.25 69.80 36.26 63.18
  Q 35.77 62.82 35.77 63.43
  L 35.80 108.71
  A 0.50 0.50 0.0 0 0 36.30 109.21
  L 110.86 109.16
  A 0.51 0.49 0.0 0 0 111.37 108.67
  L 111.27 63.47
  Q 111.27 62.98 110.87 63.28"
/>
<path stroke="#776b80" vector-effect="non-scaling-stroke" d="
  M 132.78 86.01
  A 9.30 9.30 0.0 0 0 123.48 76.71
  A 9.30 9.30 0.0 0 0 114.18 86.01
  A 9.30 9.30 0.0 0 0 123.48 95.31
  A 9.30 9.30 0.0 0 0 132.78 86.01"
/>
<path stroke="#c1bac9" vector-effect="non-scaling-stroke" d="
  M 73.29 101.25
  L 73.96 101.25"
/>
<path stroke="#7e7282" vector-effect="non-scaling-stroke" d="
  M 73.96 101.25
  C 75.40 103.28 81.56 105.07 84.08 105.88
  A 0.38 0.37 9.9 0 0 84.58 105.54
  Q 85.09 86.35 84.34 67.23
  Q 84.32 66.73 83.92 67.04
  Q 78.55 71.06 74.00 75.79"
/>
<path stroke="#c1bac9" vector-effect="non-scaling-stroke" d="
  M 74.00 75.79
  L 73.29 76.00"
/>
<path stroke="#7e7282" vector-effect="non-scaling-stroke" d="
  M 73.29 76.00
  Q 68.54 70.97 63.10 66.76
  Q 62.51 66.31 62.51 67.05
  L 62.50 105.26
  A 0.68 0.68 -10.5 0 0 63.42 105.89
  C 65.57 105.06 71.99 103.11 73.29 101.25"
/>
<path stroke="#47494d" vector-effect="non-scaling-stroke" d="
  M 73.29 76.00
  L 73.29 101.25"
/>
<path stroke="#47494d" vector-effect="non-scaling-stroke" d="
  M 73.96 101.25
  L 74.00 75.79"
/>
<path stroke="#7e7282" vector-effect="non-scaling-stroke" d="
  M 71.97 75.86
  L 63.98 69.05
  Q 63.57 68.70 63.56 69.27
  L 63.55 103.99
  A 0.39 0.35 80.7 0 0 64.03 104.37
  L 71.70 101.43
  A 1.07 0.91 81.0 0 0 72.28 100.47
  L 72.25 76.54
  A 0.96 0.76 -74.0 0 0 71.97 75.86"
/>
<path stroke="#7e7282" vector-effect="non-scaling-stroke" d="
  M 74.98 100.95
  L 83.08 104.47
  A 0.36 0.33 -79.2 0 0 83.54 104.13
  L 83.57 69.03
  Q 83.58 68.30 83.04 68.78
  L 75.12 75.95
  A 1.14 1.10 69.9 0 0 74.75 76.79
  L 74.68 100.42
  A 0.61 0.51 -79.7 0 0 74.98 100.95"
/>
<path stroke="#9a87a8" vector-effect="non-scaling-stroke" d="
  M 124.53 78.53
  A 2.05 1.67 35.2 0 0 122.26 78.69
  L 119.68 81.32
  A 1.31 1.09 70.7 0 0 119.35 82.21
  L 119.40 91.04
  A 0.96 0.85 17.7 0 0 119.85 91.80
  Q 124.09 94.38 127.87 91.34
  A 1.06 1.00 71.1 0 0 128.25 90.51
  C 128.17 85.85 129.60 81.34 124.53 78.53"
/>
<path stroke="#a18eaa" vector-effect="non-scaling-stroke" d="
  M 120.70 91.02
  Q 121.64 91.58 122.37 91.47
  A 0.69 0.53 86.7 0 0 122.82 90.81
  L 122.89 80.54
  A 0.38 0.33 81.9 0 0 122.45 80.16
  C 119.06 81.28 120.26 87.53 120.27 90.28
  A 0.87 0.85 15.3 0 0 120.70 91.02"
/>
<path stroke="#9a87a8" vector-effect="non-scaling-stroke" d="
  M 125.00 91.61
  C 126.43 91.40 127.23 90.99 127.26 89.38
  C 127.31 85.96 128.04 80.96 125.04 80.12
  A 0.40 0.39 -82.3 0 0 124.54 80.51
  L 124.51 91.19
  A 0.43 0.42 -4.1 0 0 125.00 91.61"
/>
</g>
<path fill="#040105" d="
  M 148.32 75.02
  A 73.33 73.33 0.0 0 1 74.99 148.35
  A 73.33 73.33 0.0 0 1 1.66 75.02
  A 73.33 73.33 0.0 0 1 74.99 1.69
  A 73.33 73.33 0.0 0 1 148.32 75.02
  Z
  M 146.22 75.00
  A 71.22 71.22 0.0 0 0 75.00 3.78
  A 71.22 71.22 0.0 0 0 3.78 75.00
  A 71.22 71.22 0.0 0 0 75.00 146.22
  A 71.22 71.22 0.0 0 0 146.22 75.00
  Z"
/>
<path fill="#f7e3fe" d="
  M 146.22 75.00
  A 71.22 71.22 0.0 0 1 75.00 146.22
  A 71.22 71.22 0.0 0 1 3.78 75.00
  A 71.22 71.22 0.0 0 1 75.00 3.78
  A 71.22 71.22 0.0 0 1 146.22 75.00
  Z
  M 113.31 75.32
  C 113.96 75.32 123.78 74.87 123.19 75.72
  A 0.98 0.53 0.7 0 1 122.62 76.02
  Q 113.24 77.67 113.73 87.50
  C 114.23 97.44 127.96 99.19 132.51 90.93
  C 135.72 85.10 132.05 77.85 125.64 76.24
  A 1.40 0.71 67.2 0 1 124.95 75.66
  L 124.30 74.71
  A 1.14 0.68 -9.4 0 0 123.44 74.37
  L 113.79 74.50
  A 1.21 1.12 89.2 0 1 112.66 73.31
  L 112.48 62.26
  A 1.65 1.16 70.2 0 1 112.73 61.35
  C 118.04 53.76 115.89 48.20 112.48 39.91
  A 0.77 0.74 78.0 0 0 111.79 39.44
  L 35.05 39.61
  A 0.74 0.71 -79.2 0 0 34.38 40.09
  C 31.48 48.12 29.33 53.54 34.36 61.38
  A 1.74 1.72 29.5 0 1 34.62 62.29
  L 34.57 109.84
  A 0.58 0.58 4.7 0 0 35.06 110.41
  C 39.72 111.07 45.34 110.52 48.73 110.52
  Q 80.26 110.48 112.07 110.51
  A 0.76 0.75 -90.0 0 0 112.82 109.75
  L 112.80 75.81
  A 0.50 0.49 0.6 0 1 113.31 75.32
  Z"
/>
<path fill="#040105" d="
  M 112.80 75.81
  L 112.82 109.75
  A 0.76 0.75 -90.0 0 1 112.07 110.51
  Q 80.26 110.48 48.73 110.52
  C 45.34 110.52 39.72 111.07 35.06 110.41
  A 0.58 0.58 4.7 0 1 34.57 109.84
  L 34.62 62.29
  A 1.74 1.72 29.5 0 0 34.36 61.38
  C 29.33 53.54 31.48 48.12 34.38 40.09
  A 0.74 0.71 -79.2 0 1 35.05 39.61
  L 111.79 39.44
  A 0.77 0.74 78.0 0 1 112.48 39.91
  C 115.89 48.20 118.04 53.76 112.73 61.35
  A 1.65 1.16 70.2 0 0 112.48 62.26
  L 112.66 73.31
  A 1.21 1.12 89.2 0 0 113.79 74.50
  L 123.44 74.37
  A 1.14 0.68 -9.4 0 1 124.30 74.71
  L 124.95 75.66
  A 1.40 0.71 67.2 0 0 125.64 76.24
  C 132.05 77.85 135.72 85.10 132.51 90.93
  C 127.96 99.19 114.23 97.44 113.73 87.50
  Q 113.24 77.67 122.62 76.02
  A 0.98 0.53 0.7 0 0 123.19 75.72
  C 123.78 74.87 113.96 75.32 113.31 75.32
  A 0.50 0.49 0.6 0 0 112.80 75.81
  Z
  M 35.37 40.99
  L 32.89 49.24
  A 0.41 0.38 7.9 0 0 33.29 49.73
  L 113.97 49.73
  A 0.40 0.38 -8.1 0 0 114.36 49.24
  L 111.87 41.23
  A 0.74 0.67 -8.0 0 0 111.18 40.76
  L 35.70 40.76
  A 0.35 0.31 6.4 0 0 35.37 40.99
  Z
  M 32.42 51.58
  C 33.32 69.92 57.50 69.95 58.92 51.54
  A 0.46 0.45 -88.3 0 0 58.46 51.04
  L 32.91 51.08
  A 0.50 0.48 -1.7 0 0 32.42 51.58
  Z
  M 60.31 51.53
  C 61.29 69.87 85.74 70.05 86.92 51.53
  A 0.47 0.47 -88.3 0 0 86.45 51.03
  L 60.79 51.02
  A 0.49 0.48 88.9 0 0 60.31 51.53
  Z
  M 88.31 51.53
  C 89.17 70.04 114.36 69.80 114.71 51.54
  A 0.51 0.49 -89.4 0 0 114.22 51.02
  L 88.80 51.01
  A 0.50 0.49 88.9 0 0 88.31 51.53
  Z
  M 110.87 63.28
  C 101.81 70.05 91.15 66.21 87.86 55.91
  Q 87.60 55.09 87.34 55.91
  C 82.82 70.44 65.20 70.07 59.72 56.15
  Q 59.54 55.69 59.37 56.16
  C 55.60 66.58 45.25 69.80 36.26 63.18
  Q 35.77 62.82 35.77 63.43
  L 35.80 108.71
  A 0.50 0.50 0.0 0 0 36.30 109.21
  L 110.86 109.16
  A 0.51 0.49 0.0 0 0 111.37 108.67
  L 111.27 63.47
  Q 111.27 62.98 110.87 63.28
  Z
  M 132.78 86.01
  A 9.30 9.30 0.0 0 0 123.48 76.71
  A 9.30 9.30 0.0 0 0 114.18 86.01
  A 9.30 9.30 0.0 0 0 123.48 95.31
  A 9.30 9.30 0.0 0 0 132.78 86.01
  Z"
/>
<path fill="#f7e3fe" d="
  M 35.37 40.99
  A 0.35 0.31 6.4 0 1 35.70 40.76
  L 111.18 40.76
  A 0.74 0.67 -8.0 0 1 111.87 41.23
  L 114.36 49.24
  A 0.40 0.38 -8.1 0 1 113.97 49.73
  L 33.29 49.73
  A 0.41 0.38 7.9 0 1 32.89 49.24
  L 35.37 40.99
  Z"
/>
<path fill="#e9d5fb" d="
  M 58.92 51.54
  C 57.50 69.95 33.32 69.92 32.42 51.58
  A 0.50 0.48 -1.7 0 1 32.91 51.08
  L 58.46 51.04
  A 0.46 0.45 -88.3 0 1 58.92 51.54
  Z"
/>
<path fill="#e9d5fb" d="
  M 86.92 51.53
  C 85.74 70.05 61.29 69.87 60.31 51.53
  A 0.49 0.48 88.9 0 1 60.79 51.02
  L 86.45 51.03
  A 0.47 0.47 -88.3 0 1 86.92 51.53
  Z"
/>
<path fill="#e9d5fb" d="
  M 114.71 51.54
  C 114.36 69.80 89.17 70.04 88.31 51.53
  A 0.50 0.49 88.9 0 1 88.80 51.01
  L 114.22 51.02
  A 0.51 0.49 -89.4 0 1 114.71 51.54
  Z"
/>
<path fill="#f7e3fe" d="
  M 87.86 55.91
  C 91.15 66.21 101.81 70.05 110.87 63.28
  Q 111.27 62.98 111.27 63.47
  L 111.37 108.67
  A 0.51 0.49 -0.0 0 1 110.86 109.16
  L 36.30 109.21
  A 0.50 0.50 0.0 0 1 35.80 108.71
  L 35.77 63.43
  Q 35.77 62.82 36.26 63.18
  C 45.25 69.80 55.60 66.58 59.37 56.16
  Q 59.54 55.69 59.72 56.15
  C 65.20 70.07 82.82 70.44 87.34 55.91
  Q 87.60 55.09 87.86 55.91
  Z
  M 73.29 101.25
  L 73.96 101.25
  C 75.40 103.28 81.56 105.07 84.08 105.88
  A 0.38 0.37 9.9 0 0 84.58 105.54
  Q 85.09 86.35 84.34 67.23
  Q 84.32 66.73 83.92 67.04
  Q 78.55 71.06 74.00 75.79
  L 73.29 76.00
  Q 68.54 70.97 63.10 66.76
  Q 62.51 66.31 62.51 67.05
  L 62.50 105.26
  A 0.68 0.68 -10.5 0 0 63.42 105.89
  C 65.57 105.06 71.99 103.11 73.29 101.25
  Z"
/>
<path fill="#040105" d="
  M 73.29 76.00
  L 73.29 101.25
  C 71.99 103.11 65.57 105.06 63.42 105.89
  A 0.68 0.68 -10.5 0 1 62.50 105.26
  L 62.51 67.05
  Q 62.51 66.31 63.10 66.76
  Q 68.54 70.97 73.29 76.00
  Z
  M 71.97 75.86
  L 63.98 69.05
  Q 63.57 68.70 63.56 69.27
  L 63.55 103.99
  A 0.39 0.35 80.7 0 0 64.03 104.37
  L 71.70 101.43
  A 1.07 0.91 81.0 0 0 72.28 100.47
  L 72.25 76.54
  A 0.96 0.76 -74.0 0 0 71.97 75.86
  Z"
/>
<path fill="#040105" d="
  M 73.96 101.25
  L 74.00 75.79
  Q 78.55 71.06 83.92 67.04
  Q 84.32 66.73 84.34 67.23
  Q 85.09 86.35 84.58 105.54
  A 0.38 0.37 9.9 0 1 84.08 105.88
  C 81.56 105.07 75.40 103.28 73.96 101.25
  Z
  M 74.98 100.95
  L 83.08 104.47
  A 0.36 0.33 -79.2 0 0 83.54 104.13
  L 83.57 69.03
  Q 83.58 68.30 83.04 68.78
  L 75.12 75.95
  A 1.14 1.10 69.9 0 0 74.75 76.79
  L 74.68 100.42
  A 0.61 0.51 -79.7 0 0 74.98 100.95
  Z"
/>
<path fill="#f7e3fe" d="
  M 71.97 75.86
  A 0.96 0.76 -74.0 0 1 72.25 76.54
  L 72.28 100.47
  A 1.07 0.91 81.0 0 1 71.70 101.43
  L 64.03 104.37
  A 0.39 0.35 80.7 0 1 63.55 103.99
  L 63.56 69.27
  Q 63.57 68.70 63.98 69.05
  L 71.97 75.86
  Z"
/>
<path fill="#f7e3fe" d="
  M 74.98 100.95
  A 0.61 0.51 -79.7 0 1 74.68 100.42
  L 74.75 76.79
  A 1.14 1.10 69.9 0 1 75.12 75.95
  L 83.04 68.78
  Q 83.58 68.30 83.57 69.03
  L 83.54 104.13
  A 0.36 0.33 -79.2 0 1 83.08 104.47
  L 74.98 100.95
  Z"
/>
<path fill="#8a9094" d="
  M 74.00 75.79
  L 73.96 101.25
  L 73.29 101.25
  L 73.29 76.00
  L 74.00 75.79
  Z"
/>
<path fill="#e9d5fb" d="
  M 132.78 86.01
  A 9.30 9.30 0.0 0 1 123.48 95.31
  A 9.30 9.30 0.0 0 1 114.18 86.01
  A 9.30 9.30 0.0 0 1 123.48 76.71
  A 9.30 9.30 0.0 0 1 132.78 86.01
  Z
  M 124.53 78.53
  A 2.05 1.67 35.2 0 0 122.26 78.69
  L 119.68 81.32
  A 1.31 1.09 70.7 0 0 119.35 82.21
  L 119.40 91.04
  A 0.96 0.85 17.7 0 0 119.85 91.80
  Q 124.09 94.38 127.87 91.34
  A 1.06 1.00 71.1 0 0 128.25 90.51
  C 128.17 85.85 129.60 81.34 124.53 78.53
  Z"
/>
<path fill="#4a3955" d="
  M 124.53 78.53
  C 129.60 81.34 128.17 85.85 128.25 90.51
  A 1.06 1.00 71.1 0 1 127.87 91.34
  Q 124.09 94.38 119.85 91.80
  A 0.96 0.85 17.7 0 1 119.40 91.04
  L 119.35 82.21
  A 1.31 1.09 70.7 0 1 119.68 81.32
  L 122.26 78.69
  A 2.05 1.67 35.2 0 1 124.53 78.53
  Z
  M 120.70 91.02
  Q 121.64 91.58 122.37 91.47
  A 0.69 0.53 86.7 0 0 122.82 90.81
  L 122.89 80.54
  A 0.38 0.33 81.9 0 0 122.45 80.16
  C 119.06 81.28 120.26 87.53 120.27 90.28
  A 0.87 0.85 15.3 0 0 120.70 91.02
  Z
  M 125.00 91.61
  C 126.43 91.40 127.23 90.99 127.26 89.38
  C 127.31 85.96 128.04 80.96 125.04 80.12
  A 0.40 0.39 -82.3 0 0 124.54 80.51
  L 124.51 91.19
  A 0.43 0.42 -4.1 0 0 125.00 91.61
  Z"
/>
<path fill="#f7e3fe" d="
  M 120.70 91.02
  A 0.87 0.85 15.3 0 1 120.27 90.28
  C 120.26 87.53 119.06 81.28 122.45 80.16
  A 0.38 0.33 81.9 0 1 122.89 80.54
  L 122.82 90.81
  A 0.69 0.53 86.7 0 1 122.37 91.47
  Q 121.64 91.58 120.70 91.02
  Z"
/>
<path fill="#e9d5fb" d="
  M 125.00 91.61
  A 0.43 0.42 -4.1 0 1 124.51 91.19
  L 124.54 80.51
  A 0.40 0.39 -82.3 0 1 125.04 80.12
  C 128.04 80.96 127.31 85.96 127.26 89.38
  C 127.23 90.99 126.43 91.40 125.00 91.61
  Z"
/>
</svg>
